<svg xmlns="http://www.w3.org/2000/svg" viewBox="0 0 451.04 381.65"><defs><style>.cls-1,.cls-2,.cls-3,.cls-4,.cls-5{fill:none;stroke-miterlimit:10;}.cls-1{stroke:#8d9361;}.cls-1,.cls-2,.cls-3,.cls-4{stroke-width:3px;}.cls-2{stroke:#ed9576;}.cls-3{stroke:#d8ab3c;}.cls-4{stroke:#327980;}.cls-5{stroke:#000;}</style></defs><title>Asset 33</title><g id="Layer_2" data-name="Layer 2"><g id="Layer_2-2" data-name="Layer 2"><path class="cls-1" d="M63.33,76.36c180.26,154.49-148.41,278.29,76,224.91s342.2,167.32,224.44-53.38S409.9,36.11,246,27.19-20.65,4.39,63.33,76.36Z"/><path class="cls-2" d="M88.32,83c152.73,134.38-111,237.28,70.22,193.75s285.37,147,181.24-43.53S369.71,52,235.64,42.68,17.16,20.42,88.32,83Z"/><path class="cls-3" d="M36,67.77c213.69,177.79-207.71,326.09,77.61,261.12s415.53,190.75,285.31-65S473.27,16.6,268.69,8.22-63.56-15,36,67.77Z"/><path class="cls-4" d="M112.44,88.67C238.85,205,26.79,287.22,173,253.66S407.26,383,319.23,220.11s20.92-152.64-88-162.91S53.55,34.49,112.44,88.67Z"/><path d="M327,255.74c-21.49-29-45.26-56.53-69.39-83.35-21.81-24.24-44.52-47.76-71.43-66.42-16.39-11.37-33-22.72-49.95-33.22-5.88-3.64-11.93,4.57-7.27,9.42,4,4.21,7.72,9.08,13.13,11.61s11.13-2.65,8.21-8.21c-3-5.76-9-9.12-14.07-12.82-5.56-4-12.11,4.78-7.27,9.42,20.06,19.25,40.89,40.31,48.85,67.73,8.45,29.12-3.26,57.72-24.26,78.31-5.52,5.41,3,13.89,8.49,8.48C185.16,214,198.38,182,190.23,149.78c-7.81-30.87-30.46-54.68-52.77-76.09l-7.27,9.42c3.4,2.47,7.74,4.69,9.75,8.52l8.21-8.21c-4.43-2.08-7.37-6.27-10.69-9.73l-7.27,9.42c28.74,17.79,57.27,36.52,81.94,59.22s46.71,49,68.35,74.61c12.38,14.66,24.73,29.43,36.16,44.86,4.55,6.14,15,.16,10.37-6.06Z"/><path d="M194.41,183.24h54c7.72,0,7.74-12,0-12h-54c-7.72,0-7.74,12,0,12Z"/><line class="cls-5" x1="223.62" y1="83.36" x2="235.26" y2="93.79"/><line class="cls-5" x1="242.03" y1="99.51" x2="251.39" y2="107.9"/><line class="cls-5" x1="235.11" y1="99.93" x2="229.53" y2="106.15"/><line class="cls-5" x1="247.04" y1="87.17" x2="241.91" y2="92.9"/><line class="cls-5" x1="233.43" y1="96.58" x2="223.03" y2="97.14"/><line class="cls-5" x1="253.81" y1="95.65" x2="243.4" y2="96.22"/><line class="cls-5" x1="239.56" y1="111.93" x2="238.98" y2="101.28"/><line class="cls-5" x1="238.3" y1="91.7" x2="237.72" y2="81.05"/><path d="M221.51,81.93a.75.75,0,0,0,0-1.5.75.75,0,0,0,0,1.5Z"/><path d="M218.77,79.47a.75.75,0,0,0,0-1.5.75.75,0,0,0,0,1.5Z"/><path d="M216.27,77.43a.75.75,0,0,0,0-1.5.75.75,0,0,0,0,1.5Z"/><path d="M253.23,110.21a.75.75,0,0,0,0-1.5.75.75,0,0,0,0,1.5Z"/><path d="M255.63,112.36a.75.75,0,0,0,0-1.5.75.75,0,0,0,0,1.5Z"/><path d="M258.23,114.28a.75.75,0,0,0,0-1.5.75.75,0,0,0,0,1.5Z"/><path d="M248.63,86.25a.75.75,0,0,0,0-1.5.75.75,0,0,0,0,1.5Z"/><path d="M250.88,83.73a.75.75,0,0,0,0-1.5.75.75,0,0,0,0,1.5Z"/><path d="M256.33,96.64a.75.75,0,0,0,0-1.5.75.75,0,0,0,0,1.5Z"/><path d="M258.58,96a.75.75,0,0,0,0-1.5.75.75,0,0,0,0,1.5Z"/><path d="M238,79.31a.75.75,0,0,0,0-1.5.75.75,0,0,0,0,1.5Z"/><path d="M237.71,76a.75.75,0,0,0,0-1.5.75.75,0,0,0,0,1.5Z"/><path d="M220.71,98a.75.75,0,0,0,0-1.5.75.75,0,0,0,0,1.5Z"/><path d="M217.58,98.57a.75.75,0,0,0,0-1.5.75.75,0,0,0,0,1.5Z"/><path d="M228.38,108.19a.75.75,0,0,0,0-1.5.75.75,0,0,0,0,1.5Z"/><path d="M226.34,110.47a.75.75,0,0,0,0-1.5.75.75,0,0,0,0,1.5Z"/><path d="M239.22,114.86a.75.75,0,0,0,0-1.5.75.75,0,0,0,0,1.5Z"/><path d="M239.82,118.77a.75.75,0,0,0,0-1.5.75.75,0,0,0,0,1.5Z"/></g></g></svg>